STARTFONT 2.1
COMMENT Copyright (C) 2022 by Andrew G. Crowell. Creative Commons Attribution 4.0 International License (CC BY 4.0).
COMMENT om_tall_plain.bdf
FONT -eggboycolor-omelette_tall_plain-medium-r-normal--8-100-72-72-m-90-ISO8859-1
SIZE 8 72 72
FONTBOUNDINGBOX 8 16 0 -2
STARTPROPERTIES 13
FONT_ASCENT 14 
FONT_DESCENT 2
PIXEL_SIZE 16
POINT_SIZE 100
RESOLUTION_X 72
RESOLUTION_Y 72
SPACING "C"
DEFAULT_CHAR 32
AVERAGE_WIDTH 90
CHARSET_REGISTRY "ISO8859"
CHARSET_ENCODING "1"
FOUNDRY "eggboycolor"
COPYRIGHT "Copyright (C) 2022 by Andrew G. Crowell. Creative Commons Attribution 4.0 International License (CC BY 4.0)."
ENDPROPERTIES
CHARS 96
STARTCHAR char32
ENCODING 32
SWIDTH 800 0
DWIDTH 8 0
BBX 8 16 0 -2
BITMAP
00
00
00
00
00
00
00
00
00
00
00
00
00
00
00
00
ENDCHAR
STARTCHAR char33
ENCODING 33
SWIDTH 800 0
DWIDTH 8 0
BBX 8 16 0 -2
BITMAP
00
0C
0E
1E
1E
1E
1C
38
30
30
00
00
30
30
00
00
ENDCHAR
STARTCHAR char34
ENCODING 34
SWIDTH 800 0
DWIDTH 8 0
BBX 8 16 0 -2
BITMAP
00
00
EE
EE
EE
44
00
00
00
00
00
00
00
00
00
00
ENDCHAR
STARTCHAR char35
ENCODING 35
SWIDTH 800 0
DWIDTH 8 0
BBX 8 16 0 -2
BITMAP
00
00
00
6C
6C
FE
6C
6C
FE
6C
6C
00
00
00
00
00
ENDCHAR
STARTCHAR char36
ENCODING 36
SWIDTH 800 0
DWIDTH 8 0
BBX 8 16 0 -2
BITMAP
00
00
08
08
3E
68
68
68
3C
16
16
16
7C
10
10
00
ENDCHAR
STARTCHAR char37
ENCODING 37
SWIDTH 800 0
DWIDTH 8 0
BBX 8 16 0 -2
BITMAP
00
00
00
00
00
E2
A6
EC
18
30
6E
CA
8E
00
00
00
ENDCHAR
STARTCHAR char38
ENCODING 38
SWIDTH 800 0
DWIDTH 8 0
BBX 8 16 0 -2
BITMAP
00
00
00
30
68
68
68
30
7A
EE
C4
C6
6E
3A
00
00
ENDCHAR
STARTCHAR char39
ENCODING 39
SWIDTH 800 0
DWIDTH 8 0
BBX 8 16 0 -2
BITMAP
00
00
38
38
18
30
00
00
00
00
00
00
00
00
00
00
ENDCHAR
STARTCHAR char40
ENCODING 40
SWIDTH 800 0
DWIDTH 8 0
BBX 8 16 0 -2
BITMAP
00
0C
18
30
30
30
30
30
30
30
30
30
18
0C
00
00
ENDCHAR
STARTCHAR char41
ENCODING 41
SWIDTH 800 0
DWIDTH 8 0
BBX 8 16 0 -2
BITMAP
00
30
18
0C
0C
0C
0C
0C
0C
0C
0C
0C
18
30
00
00
ENDCHAR
STARTCHAR char42
ENCODING 42
SWIDTH 800 0
DWIDTH 8 0
BBX 8 16 0 -2
BITMAP
00
00
00
00
10
54
38
38
54
10
00
00
00
00
00
00
ENDCHAR
STARTCHAR char43
ENCODING 43
SWIDTH 800 0
DWIDTH 8 0
BBX 8 16 0 -2
BITMAP
00
00
00
00
00
00
10
10
7C
10
10
00
00
00
00
00
ENDCHAR
STARTCHAR char44
ENCODING 44
SWIDTH 800 0
DWIDTH 8 0
BBX 8 16 0 -2
BITMAP
00
00
00
00
00
00
00
00
00
00
00
30
30
10
20
00
ENDCHAR
STARTCHAR char45
ENCODING 45
SWIDTH 800 0
DWIDTH 8 0
BBX 8 16 0 -2
BITMAP
00
00
00
00
00
00
00
00
7C
00
00
00
00
00
00
00
ENDCHAR
STARTCHAR char46
ENCODING 46
SWIDTH 800 0
DWIDTH 8 0
BBX 8 16 0 -2
BITMAP
00
00
00
00
00
00
00
00
00
00
00
00
30
30
00
00
ENDCHAR
STARTCHAR char47
ENCODING 47
SWIDTH 800 0
DWIDTH 8 0
BBX 8 16 0 -2
BITMAP
00
06
06
0E
0C
1C
18
38
30
70
60
E0
C0
C0
00
00
ENDCHAR
STARTCHAR char48
ENCODING 48
SWIDTH 800 0
DWIDTH 8 0
BBX 8 16 0 -2
BITMAP
00
3C
66
66
66
6E
6E
7E
76
76
66
66
66
3C
00
00
ENDCHAR
STARTCHAR char49
ENCODING 49
SWIDTH 800 0
DWIDTH 8 0
BBX 8 16 0 -2
BITMAP
00
18
38
18
18
18
18
18
18
18
18
18
18
3C
00
00
ENDCHAR
STARTCHAR char50
ENCODING 50
SWIDTH 800 0
DWIDTH 8 0
BBX 8 16 0 -2
BITMAP
00
3C
66
66
06
0C
0C
18
18
30
30
60
60
7E
00
00
ENDCHAR
STARTCHAR char51
ENCODING 51
SWIDTH 800 0
DWIDTH 8 0
BBX 8 16 0 -2
BITMAP
00
3C
66
66
66
06
0C
1C
0C
06
66
66
66
3C
00
00
ENDCHAR
STARTCHAR char52
ENCODING 52
SWIDTH 800 0
DWIDTH 8 0
BBX 8 16 0 -2
BITMAP
00
60
6C
6C
6C
6C
6C
6C
7E
0C
0C
0C
0C
0C
00
00
ENDCHAR
STARTCHAR char53
ENCODING 53
SWIDTH 800 0
DWIDTH 8 0
BBX 8 16 0 -2
BITMAP
00
7E
60
60
60
60
7C
06
06
06
06
06
66
3C
00
00
ENDCHAR
STARTCHAR char54
ENCODING 54
SWIDTH 800 0
DWIDTH 8 0
BBX 8 16 0 -2
BITMAP
00
1C
30
60
60
60
7C
66
66
66
66
66
66
3C
00
00
ENDCHAR
STARTCHAR char55
ENCODING 55
SWIDTH 800 0
DWIDTH 8 0
BBX 8 16 0 -2
BITMAP
00
7E
06
06
06
0C
0C
18
18
30
30
30
30
30
00
00
ENDCHAR
STARTCHAR char56
ENCODING 56
SWIDTH 800 0
DWIDTH 8 0
BBX 8 16 0 -2
BITMAP
00
3C
66
66
66
66
66
3C
66
66
66
66
66
3C
00
00
ENDCHAR
STARTCHAR char57
ENCODING 57
SWIDTH 800 0
DWIDTH 8 0
BBX 8 16 0 -2
BITMAP
00
3C
66
66
66
66
66
3E
06
06
06
06
0C
38
00
00
ENDCHAR
STARTCHAR char58
ENCODING 58
SWIDTH 800 0
DWIDTH 8 0
BBX 8 16 0 -2
BITMAP
00
00
00
00
00
00
30
30
00
00
00
30
30
00
00
00
ENDCHAR
STARTCHAR char59
ENCODING 59
SWIDTH 800 0
DWIDTH 8 0
BBX 8 16 0 -2
BITMAP
00
00
00
00
00
00
30
30
00
00
00
30
30
10
20
00
ENDCHAR
STARTCHAR char60
ENCODING 60
SWIDTH 800 0
DWIDTH 8 0
BBX 8 16 0 -2
BITMAP
00
00
00
00
00
00
06
1C
70
1C
06
00
00
00
00
00
ENDCHAR
STARTCHAR char61
ENCODING 61
SWIDTH 800 0
DWIDTH 8 0
BBX 8 16 0 -2
BITMAP
00
00
00
00
00
00
00
7C
00
7C
00
00
00
00
00
00
ENDCHAR
STARTCHAR char62
ENCODING 62
SWIDTH 800 0
DWIDTH 8 0
BBX 8 16 0 -2
BITMAP
00
00
00
00
00
00
60
38
0E
38
60
00
00
00
00
00
ENDCHAR
STARTCHAR char63
ENCODING 63
SWIDTH 800 0
DWIDTH 8 0
BBX 8 16 0 -2
BITMAP
00
7C
FE
C6
C6
0E
1C
38
30
30
00
00
30
30
00
00
ENDCHAR
STARTCHAR char64
ENCODING 64
SWIDTH 800 0
DWIDTH 8 0
BBX 8 16 0 -2
BITMAP
00
00
00
38
44
9A
AA
AA
AA
94
40
38
00
00
00
00
ENDCHAR
STARTCHAR char65
ENCODING 65
SWIDTH 800 0
DWIDTH 8 0
BBX 8 16 0 -2
BITMAP
00
18
3C
66
66
66
66
7E
66
66
66
66
66
66
00
00
ENDCHAR
STARTCHAR char66
ENCODING 66
SWIDTH 800 0
DWIDTH 8 0
BBX 8 16 0 -2
BITMAP
00
78
64
66
66
66
64
78
64
66
66
66
64
78
00
00
ENDCHAR
STARTCHAR char67
ENCODING 67
SWIDTH 800 0
DWIDTH 8 0
BBX 8 16 0 -2
BITMAP
00
3C
66
60
60
60
60
60
60
60
60
60
66
3C
00
00
ENDCHAR
STARTCHAR char68
ENCODING 68
SWIDTH 800 0
DWIDTH 8 0
BBX 8 16 0 -2
BITMAP
00
78
64
66
66
66
66
66
66
66
66
66
64
78
00
00
ENDCHAR
STARTCHAR char69
ENCODING 69
SWIDTH 800 0
DWIDTH 8 0
BBX 8 16 0 -2
BITMAP
00
7E
60
60
60
60
60
7E
60
60
60
60
60
7E
00
00
ENDCHAR
STARTCHAR char70
ENCODING 70
SWIDTH 800 0
DWIDTH 8 0
BBX 8 16 0 -2
BITMAP
00
7E
60
60
60
60
60
7E
60
60
60
60
60
60
00
00
ENDCHAR
STARTCHAR char71
ENCODING 71
SWIDTH 800 0
DWIDTH 8 0
BBX 8 16 0 -2
BITMAP
00
3C
66
66
66
60
60
60
6E
66
66
66
66
3C
00
00
ENDCHAR
STARTCHAR char72
ENCODING 72
SWIDTH 800 0
DWIDTH 8 0
BBX 8 16 0 -2
BITMAP
00
66
66
66
66
66
66
7E
66
66
66
66
66
66
00
00
ENDCHAR
STARTCHAR char73
ENCODING 73
SWIDTH 800 0
DWIDTH 8 0
BBX 8 16 0 -2
BITMAP
00
7E
18
18
18
18
18
18
18
18
18
18
18
7E
00
00
ENDCHAR
STARTCHAR char74
ENCODING 74
SWIDTH 800 0
DWIDTH 8 0
BBX 8 16 0 -2
BITMAP
00
1E
06
06
06
06
06
06
06
06
66
66
66
3C
00
00
ENDCHAR
STARTCHAR char75
ENCODING 75
SWIDTH 800 0
DWIDTH 8 0
BBX 8 16 0 -2
BITMAP
00
66
66
6C
6C
78
78
70
78
78
6C
6C
66
66
00
00
ENDCHAR
STARTCHAR char76
ENCODING 76
SWIDTH 800 0
DWIDTH 8 0
BBX 8 16 0 -2
BITMAP
00
60
60
60
60
60
60
60
60
60
60
60
60
7E
00
00
ENDCHAR
STARTCHAR char77
ENCODING 77
SWIDTH 800 0
DWIDTH 8 0
BBX 8 16 0 -2
BITMAP
00
82
C6
EE
FE
FE
D6
C6
C6
C6
C6
C6
C6
C6
00
00
ENDCHAR
STARTCHAR char78
ENCODING 78
SWIDTH 800 0
DWIDTH 8 0
BBX 8 16 0 -2
BITMAP
00
46
46
66
66
76
7E
7E
7E
6E
66
66
62
62
00
00
ENDCHAR
STARTCHAR char79
ENCODING 79
SWIDTH 800 0
DWIDTH 8 0
BBX 8 16 0 -2
BITMAP
00
3C
66
66
66
66
66
66
66
66
66
66
66
3C
00
00
ENDCHAR
STARTCHAR char80
ENCODING 80
SWIDTH 800 0
DWIDTH 8 0
BBX 8 16 0 -2
BITMAP
00
7C
66
66
66
66
66
7C
60
60
60
60
60
60
00
00
ENDCHAR
STARTCHAR char81
ENCODING 81
SWIDTH 800 0
DWIDTH 8 0
BBX 8 16 0 -2
BITMAP
00
3C
66
66
66
66
66
66
66
66
66
6C
6E
36
02
00
ENDCHAR
STARTCHAR char82
ENCODING 82
SWIDTH 800 0
DWIDTH 8 0
BBX 8 16 0 -2
BITMAP
00
7C
66
66
66
66
66
7C
78
6C
6C
66
66
66
00
00
ENDCHAR
STARTCHAR char83
ENCODING 83
SWIDTH 800 0
DWIDTH 8 0
BBX 8 16 0 -2
BITMAP
00
3C
66
60
60
60
60
3C
06
06
06
06
66
3C
00
00
ENDCHAR
STARTCHAR char84
ENCODING 84
SWIDTH 800 0
DWIDTH 8 0
BBX 8 16 0 -2
BITMAP
00
7E
18
18
18
18
18
18
18
18
18
18
18
18
00
00
ENDCHAR
STARTCHAR char85
ENCODING 85
SWIDTH 800 0
DWIDTH 8 0
BBX 8 16 0 -2
BITMAP
00
66
66
66
66
66
66
66
66
66
66
66
66
3C
00
00
ENDCHAR
STARTCHAR char86
ENCODING 86
SWIDTH 800 0
DWIDTH 8 0
BBX 8 16 0 -2
BITMAP
00
66
66
66
66
66
66
66
66
24
3C
3C
18
18
00
00
ENDCHAR
STARTCHAR char87
ENCODING 87
SWIDTH 800 0
DWIDTH 8 0
BBX 8 16 0 -2
BITMAP
00
C6
C6
C6
C6
C6
C6
D6
D6
FE
FE
EE
C6
82
00
00
ENDCHAR
STARTCHAR char88
ENCODING 88
SWIDTH 800 0
DWIDTH 8 0
BBX 8 16 0 -2
BITMAP
00
66
66
66
66
24
3C
18
3C
24
66
66
66
66
00
00
ENDCHAR
STARTCHAR char89
ENCODING 89
SWIDTH 800 0
DWIDTH 8 0
BBX 8 16 0 -2
BITMAP
00
66
66
66
66
66
7E
3C
18
18
18
18
18
18
00
00
ENDCHAR
STARTCHAR char90
ENCODING 90
SWIDTH 800 0
DWIDTH 8 0
BBX 8 16 0 -2
BITMAP
00
7E
06
06
0C
0C
18
18
30
30
60
60
60
7E
00
00
ENDCHAR
STARTCHAR char91
ENCODING 91
SWIDTH 800 0
DWIDTH 8 0
BBX 8 16 0 -2
BITMAP
00
1C
18
18
18
18
18
18
18
18
18
18
18
1C
00
00
ENDCHAR
STARTCHAR char92
ENCODING 92
SWIDTH 800 0
DWIDTH 8 0
BBX 8 16 0 -2
BITMAP
00
C0
C0
E0
60
70
30
38
18
1C
0C
0E
06
06
00
00
ENDCHAR
STARTCHAR char93
ENCODING 93
SWIDTH 800 0
DWIDTH 8 0
BBX 8 16 0 -2
BITMAP
00
38
18
18
18
18
18
18
18
18
18
18
18
38
00
00
ENDCHAR
STARTCHAR char94
ENCODING 94
SWIDTH 800 0
DWIDTH 8 0
BBX 8 16 0 -2
BITMAP
00
20
70
D8
88
00
00
00
00
00
00
00
00
00
00
00
ENDCHAR
STARTCHAR char95
ENCODING 95
SWIDTH 800 0
DWIDTH 8 0
BBX 8 16 0 -2
BITMAP
00
00
00
00
00
00
00
00
00
00
00
00
00
7E
00
00
ENDCHAR
STARTCHAR char96
ENCODING 96
SWIDTH 800 0
DWIDTH 8 0
BBX 8 16 0 -2
BITMAP
00
00
30
38
18
00
00
00
00
00
00
00
00
00
00
00
ENDCHAR
STARTCHAR char97
ENCODING 97
SWIDTH 800 0
DWIDTH 8 0
BBX 8 16 0 -2
BITMAP
00
00
00
00
00
00
00
1E
36
66
66
66
6E
36
00
00
ENDCHAR
STARTCHAR char98
ENCODING 98
SWIDTH 800 0
DWIDTH 8 0
BBX 8 16 0 -2
BITMAP
00
20
60
60
60
60
60
78
6C
66
66
66
66
7C
00
00
ENDCHAR
STARTCHAR char99
ENCODING 99
SWIDTH 800 0
DWIDTH 8 0
BBX 8 16 0 -2
BITMAP
00
00
00
00
00
00
00
3C
66
60
60
60
66
3C
00
00
ENDCHAR
STARTCHAR char100
ENCODING 100
SWIDTH 800 0
DWIDTH 8 0
BBX 8 16 0 -2
BITMAP
00
02
06
06
06
06
06
1E
36
66
66
66
66
3E
00
00
ENDCHAR
STARTCHAR char101
ENCODING 101
SWIDTH 800 0
DWIDTH 8 0
BBX 8 16 0 -2
BITMAP
00
00
00
00
00
00
00
3C
66
66
7E
60
60
3E
00
00
ENDCHAR
STARTCHAR char102
ENCODING 102
SWIDTH 800 0
DWIDTH 8 0
BBX 8 16 0 -2
BITMAP
00
0E
18
18
18
18
18
7E
18
18
18
18
18
18
10
00
ENDCHAR
STARTCHAR char103
ENCODING 103
SWIDTH 800 0
DWIDTH 8 0
BBX 8 16 0 -2
BITMAP
00
00
00
00
00
00
00
3E
66
66
66
3E
06
66
3C
00
ENDCHAR
STARTCHAR char104
ENCODING 104
SWIDTH 800 0
DWIDTH 8 0
BBX 8 16 0 -2
BITMAP
00
60
60
60
60
60
60
7C
66
66
66
66
66
66
00
00
ENDCHAR
STARTCHAR char105
ENCODING 105
SWIDTH 800 0
DWIDTH 8 0
BBX 8 16 0 -2
BITMAP
00
00
00
18
18
00
00
18
18
18
18
18
18
18
00
00
ENDCHAR
STARTCHAR char106
ENCODING 106
SWIDTH 800 0
DWIDTH 8 0
BBX 8 16 0 -2
BITMAP
00
00
00
06
06
00
00
06
06
06
06
66
66
66
3C
00
ENDCHAR
STARTCHAR char107
ENCODING 107
SWIDTH 800 0
DWIDTH 8 0
BBX 8 16 0 -2
BITMAP
00
60
60
60
60
60
60
66
6C
78
78
6C
66
66
00
00
ENDCHAR
STARTCHAR char108
ENCODING 108
SWIDTH 800 0
DWIDTH 8 0
BBX 8 16 0 -2
BITMAP
00
38
18
18
18
18
18
18
18
18
18
18
18
1C
00
00
ENDCHAR
STARTCHAR char109
ENCODING 109
SWIDTH 800 0
DWIDTH 8 0
BBX 8 16 0 -2
BITMAP
00
00
00
00
00
00
00
CC
EE
FE
D6
D6
D6
C6
00
00
ENDCHAR
STARTCHAR char110
ENCODING 110
SWIDTH 800 0
DWIDTH 8 0
BBX 8 16 0 -2
BITMAP
00
00
00
00
00
00
00
7C
66
66
66
66
66
66
00
00
ENDCHAR
STARTCHAR char111
ENCODING 111
SWIDTH 800 0
DWIDTH 8 0
BBX 8 16 0 -2
BITMAP
00
00
00
00
00
00
00
3C
66
66
66
66
66
3C
00
00
ENDCHAR
STARTCHAR char112
ENCODING 112
SWIDTH 800 0
DWIDTH 8 0
BBX 8 16 0 -2
BITMAP
00
00
00
00
00
00
00
7C
66
66
66
7C
60
60
60
00
ENDCHAR
STARTCHAR char113
ENCODING 113
SWIDTH 800 0
DWIDTH 8 0
BBX 8 16 0 -2
BITMAP
00
00
00
00
00
00
00
3E
66
66
66
3E
06
06
06
00
ENDCHAR
STARTCHAR char114
ENCODING 114
SWIDTH 800 0
DWIDTH 8 0
BBX 8 16 0 -2
BITMAP
00
00
00
00
00
00
00
6C
76
66
60
60
60
60
00
00
ENDCHAR
STARTCHAR char115
ENCODING 115
SWIDTH 800 0
DWIDTH 8 0
BBX 8 16 0 -2
BITMAP
00
00
00
00
00
00
00
3C
66
60
3C
06
66
3C
00
00
ENDCHAR
STARTCHAR char116
ENCODING 116
SWIDTH 800 0
DWIDTH 8 0
BBX 8 16 0 -2
BITMAP
00
18
18
18
18
18
18
7E
18
18
18
18
1C
0E
00
00
ENDCHAR
STARTCHAR char117
ENCODING 117
SWIDTH 800 0
DWIDTH 8 0
BBX 8 16 0 -2
BITMAP
00
00
00
00
00
00
00
66
66
66
66
66
66
3C
00
00
ENDCHAR
STARTCHAR char118
ENCODING 118
SWIDTH 800 0
DWIDTH 8 0
BBX 8 16 0 -2
BITMAP
00
00
00
00
00
00
00
66
66
24
3C
3C
18
18
00
00
ENDCHAR
STARTCHAR char119
ENCODING 119
SWIDTH 800 0
DWIDTH 8 0
BBX 8 16 0 -2
BITMAP
00
00
00
00
00
00
00
63
63
6B
6B
6B
7F
36
00
00
ENDCHAR
STARTCHAR char120
ENCODING 120
SWIDTH 800 0
DWIDTH 8 0
BBX 8 16 0 -2
BITMAP
00
00
00
00
00
00
00
66
66
66
3C
7E
66
66
00
00
ENDCHAR
STARTCHAR char121
ENCODING 121
SWIDTH 800 0
DWIDTH 8 0
BBX 8 16 0 -2
BITMAP
00
00
00
00
00
00
00
66
66
66
66
3E
06
66
3C
00
ENDCHAR
STARTCHAR char122
ENCODING 122
SWIDTH 800 0
DWIDTH 8 0
BBX 8 16 0 -2
BITMAP
00
00
00
00
00
00
00
7E
0C
18
30
60
60
7E
00
00
ENDCHAR
STARTCHAR char123
ENCODING 123
SWIDTH 800 0
DWIDTH 8 0
BBX 8 16 0 -2
BITMAP
00
0E
1C
18
18
18
30
70
30
18
18
18
1C
0E
00
00
ENDCHAR
STARTCHAR char124
ENCODING 124
SWIDTH 800 0
DWIDTH 8 0
BBX 8 16 0 -2
BITMAP
00
18
18
18
18
18
18
18
18
18
18
18
18
18
00
00
ENDCHAR
STARTCHAR char125
ENCODING 125
SWIDTH 800 0
DWIDTH 8 0
BBX 8 16 0 -2
BITMAP
00
70
38
18
18
18
0C
0E
0C
18
18
18
38
70
00
00
ENDCHAR
STARTCHAR char126
ENCODING 126
SWIDTH 800 0
DWIDTH 8 0
BBX 8 16 0 -2
BITMAP
00
00
00
00
30
7A
5E
0C
00
00
00
00
00
00
00
00
ENDCHAR
STARTCHAR char127
ENCODING 127
SWIDTH 800 0
DWIDTH 8 0
BBX 8 16 0 -2
BITMAP
00
00
00
00
00
00
00
00
00
00
00
00
DB
DB
00
00
ENDCHAR
ENDFONT
